<svg enable-background="new 0 0 512 512" viewBox="0 0 512 512" xmlns="http://www.w3.org/2000/svg"><path d="m437 75c-99.9-100-262-100-362 0s-100 262 0 362c100 99.9 262.1 99.9 362 0 100-100 100-262.1 0-362zm-52.4 252.9-54.8 54.8c-5.3 5.3-13.7 5.3-18.9 0l-53.5-53.5-54.8 54.8c-5.2 5.2-13.7 5.2-19 0l-54.8-54.8c-5.2-5.2-5.2-13.7 0-18.9l54.8-54.8-54.3-54.3c-5.3-5.3-5.3-13.7 0-19l54.8-54.8c5.2-5.2 13.7-5.3 19 0l54.3 54.3 53-53c5.2-5.2 13.7-5.2 18.9 0l54.8 54.8c5.3 5.2 5.3 13.7 0 19l-53 53 53.5 53.5c5.2 5.2 5.2 13.7 0 18.9z" fill="#f2f2f2" opacity=".7"/></svg>
