<svg enable-background="new 0 0 144 144" viewBox="0 0 144 144" xmlns="http://www.w3.org/2000/svg" xmlns:xlink="http://www.w3.org/1999/xlink"><clipPath id="a"><path d="m11.7 76.8v.5c0 33.8 26.8 61.1 59.9 61.1s59.9-27.4 59.9-61.1c0-.2 0-.4 0-.5z"/></clipPath><clipPath id="b"><path d="m132.4 77.5c0 2-13.9 3.7-34.1 4.5-3.5.1-7.3.3-11.1.3-5 .1-10.2.2-15.6.2-33.6 0-60.8-2.2-60.8-5 0-2.3 19.2-4.3 45.3-4.8h2.2c4.3-.1 8.7-.1 13.2-.1 4.6 0 9 0 13.2.1 5.2.1 10.2.2 14.8.4 6.1.3 11.6.6 16.2 1h.1c4.7.4 8.6.9 11.4 1.4 3.4.6 5.2 1.3 5.2 2z"/></clipPath><linearGradient id="c" gradientUnits="userSpaceOnUse" x1="29.3073" x2="41.7041" y1="71.9633" y2="71.9633"><stop offset=".00540541" stop-color="#b5b5b5"/><stop offset=".01694616" stop-color="#bbb"/><stop offset=".07823008" stop-color="#d4d4d4"/><stop offset=".1469" stop-color="#e7e7e7"/><stop offset=".2261" stop-color="#f5f5f5"/><stop offset=".3251" stop-color="#fdfdfd"/><stop offset=".5062" stop-color="#fff"/><stop offset=".6722" stop-color="#fcfcfc"/><stop offset=".7724" stop-color="#f4f4f4"/><stop offset=".8552" stop-color="#e6e6e6"/><stop offset=".9279" stop-color="#d2d2d2"/><stop offset=".9943" stop-color="#b8b8b8"/><stop offset="1" stop-color="#b5b5b5"/></linearGradient><linearGradient id="d" gradientUnits="userSpaceOnUse" x1="35.5057" x2="35.5057" y1="72.2558" y2="72.0781"><stop offset=".00540541" stop-color="#b5b5b5"/><stop offset=".2108" stop-color="#c6c6c6"/><stop offset=".6873" stop-color="#ebebeb"/><stop offset="1" stop-color="#fff"/></linearGradient><linearGradient id="e" gradientTransform="matrix(1 .0031 -.0031 1 1.8601 1.801)" gradientUnits="userSpaceOnUse" x1="48.7924" x2="46.8558" y1="69.3468" y2="71.2834"><stop offset=".00540541"/><stop offset="1" stop-color="#fff"/></linearGradient><path d="m0 0h144v144h-144z" fill="#8edbed"/><path d="m96.6 68.2c3.2-3.5-1-10.4-5.7-8.8 1.5-.5 2.3-2.5 1.4-3.9-.8-1.4-3-1.6-4.1-.5 1.9-1.6 1.5-4.9-.4-6.4-2-1.5-4.8-1.4-7-.2-1.3.7-2.5 2.2-2.5 3.6-.3-.5-.8-.9-1.3-1.2-.9-.5-2-.7-3.1-.6s-2.2.4-2.9 1.2c-.2.2-.4.5-.5.8-.7 0-1.4.2-2.1.5-1.4.7-2.5 1.9-2.8 3.4-.3.5-.4 1.1-.3 1.7.1 1.4.9 2.7 2 3.5.3.3 1.5.6 1.7.9.2.4-.3 1.3-.3 1.7 0 .1.1.4.1.8-.2-.1-.5-.2-.8-.2-1.6.2-3.4.5-4.5 1.8-.6.7-.6 1.8-.3 2.6-1.7-.2-3.4.5-4.2 2 .8.6 2 .5 2.9.9 1.2.5 1.9 1.6 2.8 2.6 1.2 1.4 2.8 2.5 4.4 3.5 1.7 1.2 3.5 2.3 5.6 2.8 1.1.2 2.2.3 3.4.3 2.2 0 4.3-.1 6.5-.2 1-.1 2.1-.1 3.1-.5 1.1-.4 2.2-1.2 1.7-2.4 2.7-.8 5.4-.7 7.5-2.8 2.1-1.9 1.7-5-.3-6.9z" fill="#f5f6f0" opacity=".39"/><path d="m123.5 55c-.1 1-.2 2-.6 2.9-.5-.2-1.2 0-1.6.3-.6.4-.9.9-1.2 1.4-.8 1.2-1.9 2.3-3.2 3.2.1.4.2.9.3 1.3-1-.2-1.9.5-2.5 1.2-.9 1-1.6.9-2.7 1.3-1.2.4-1.9 1.4-2.7 2.2-1.8 1.6-4.6 2.4-7.2 2.1-.9-.1-1.9-.4-2.8-.2-.8.2-1.4.7-2 1.3-1.2 1.1-2.4 2.2-3.6 3.2-.7-.3-1.4-.8-2-1.3-2.2-2.1-1.9-5.2.3-7-3.4-3.6 1-10.4 6.1-8.8-1.6-.5-2.4-2.5-1.5-3.9s3.2-1.6 4.4-.5c-2-1.6-1.6-4.9.5-6.4s5.2-1.4 7.5-.2c1 .5 1.8 1.3 2.3 2.3.1.2.2.6.3.9h.2c.3-.3.7-.5 1.1-.6 1.1-.4 2.3-.5 3.4-.1.9.3 1.7 1 2.1 1.9.1 0 .1.1.2.1.1-.5.5-.9.9-1.1 1.1-.9 2.8-.3 3.6.9.5.9.5 2.3.4 3.6z" fill="#f5f6f0" opacity=".39"/><path d="m64.6 74.5c-.1-.4-.3-.9-.5-1.3-.7-1.1-2.3-1.4-3.7-1.7-4.4-.9-8.8-1.8-13.3-2.7-.6-.1-1.1-.2-1.7-.3-2.9-.6-5.7-1.2-8.7-1.3-.9-.1-2.5-3.1-2.9-3.7-.5-1-.9-3.6-2.7-3.6-.2 0-.4 0-.5-.1s-.1-.2-.1-.3c0-.4 0-.9 0-1.3-.6-.2-1.1 0-1.7.1-.8.1-1.7-.2-2.5-.3-.3-.1-.7-.1-1-.3-1.3-.7-2.3-2.5-1.8-4 .6-2 3.2-2.2 4.9-1.7-4.1-1.3-.7-7.1 2.8-4.4-2.5-1.9-1.4-5.2 1-6.6 2.1-1.2 4.8-1.1 6.9 0 1.4.8 3.7 2.6 2.5 4.4.4-.5.5-.8 1.3-1.1 1.8-.5 4.1.3 4.7 2.2-.6-2.1 3.3-2.4 4.5-2 1 .3 1.7 1.1 2.2 2 1.3 2.3 1.4 5.3.5 7.7-.4 1.1-1.3 2-2.2 2.9 1.1-.1 2.5.1 3.5.7 2.1 1.2 1 3.4.1 5 1.7-3 6.1-.2 7.3 1.7 1.7 2.8 2 6.6 1.1 10z" fill="#f5f6f0" opacity=".39"/><path d="m79.8 48.9c-.8.8-1.5 1.9-1.4 2.9-.3-.5-.8-.9-1.3-1.1-.9-.5-2.1-.7-3.1-.6-1.1.1-2.2.5-2.9 1.2-.2.2-.4.5-.5.8-.7 0-1.4.2-2.1.5-1.3.7-2.4 2-2.7 3.5-.3.5-.3 1.1-.3 1.7.2 1.4.9 2.7 2.1 3.5.3.3 1.5.6 1.7.9.2.4-.3 1.3-.3 1.8 0 .1.1.4.2.8-.3-.1-.5-.2-.8-.2-1.4.2-2.9.5-3.9 1.3-.2-.4-.4-.8-.7-1.2-1.2-1.9-5.7-4.6-7.3-1.6.9-1.6 2-3.8-.1-5-1-.6-2.4-.8-3.5-.6.9-.8 1.8-1.7 2.2-2.9.8-2.4.7-5.5-.6-7.7-.5-.9-1.3-1.6-2.2-2-1.2-.4-5.1-.1-4.5 2-.6-1.9-2.8-2.6-4.6-2.2.5-3.1 3.6-6.1 7.1-5.1-4.1-1.2-.7-7.1 2.8-4.4-2.5-1.9-1.5-5.2.9-6.6 2.1-1.2 4.8-1.2 6.9 0 1.4.7 3.8 2.6 2.5 4.4.3-.5.5-.9 1.3-1.1 1.8-.6 4.1.2 4.7 2.1-.6-2.1 3.2-2.4 4.5-2 1 .3 1.7 1.1 2.2 2 1.3 2.2 1.4 5.3.6 7.7-.4 1.1-1.3 2-2.2 2.9 1.1-.2 2.5.1 3.5.6 2.1 1.2 1 3.4.1 5.1.3-.9 1-1.3 1.7-1.4z" fill="#f5f6f0" opacity=".17"/><path d="m104.1 67.5-2.3 4.3-4.4 1.4h-7.3l-4.5-2.7-5.1-1.6-.9-.2-2-.5-.1-.4-.1-.3 1.9-2.2 1.2-1.5 1.6-.8 2.6.4 1.2-3.3 1.1-3 2-.3.7-1.6 1-2.4.9-2.1 2.8 4.2 2.9 2.5 2 .4 1.4 2.5.5 2.2 2.2 2.3z" fill="#95a027"/><path clip-path="url(#a)" d="m11.7 76.8v.5c0 33.8 26.8 61.1 59.9 61.1s59.9-27.4 59.9-61.1c0-.2 0-.4 0-.5z" fill="#936a42"/><path clip-path="url(#a)" d="m3.5 68.1h45.7l-38.2 16.1z" fill="#966031"/><path clip-path="url(#a)" d="m3.5 68.1h45.7l-38.2 16.1z" fill="#966031"/><g clip-path="url(#a)"><path d="m85.5 165.7 6.5-20.5 3.5 10.1v.1c-3.5 4.3-6.9 7.8-10 10.3z" fill="#dbb48d"/><path d="m89.2 137.3 14-12.1-20.6-3.3-4.3 16.4c2.7-1 8.3-.1 10.9-1z" fill="#dbb48d"/><path d="m96.1 154.7 3.9-14.8-7.9 5.3 3.4 10.2z" fill="#b78658"/><path d="m92.1 145.2 7.9-5.3 3-13.4" fill="#936a42"/><path d="m102.7 137.5 5.5-7.8-4.9-4.6-11.6 10z" fill="#936a42"/><path d="m99.6 142.1 15.8-17.3-11.2 10.5z" fill="#b28e67"/><path d="m96.3 154.4 18.7-28.7-8.1 15.8z" fill="#b28e67"/><path d="m86.3 163.2 4.8-14.8-33.9 4.6z" fill="#a87c56"/><g fill="#dbb48d"><path d="m111.2 71.6-16.7 4.1 26.7-15.2z"/><path d="m118.4 112.6 5.4-17.4 4.1 8.9c-3.4 3.6-6.6 6.5-9.5 8.5z"/><path d="m123.8 95.1-12.5-6.3-.1-17.2z"/></g><path d="m118.4 112.2 5.3-17.1-12.4-6.5-8.3 36.9z" fill="#db8d32"/><path d="m95.9 155.1 19.8-30.6-16.4 17.9z" fill="#936a42"/><path d="m129.4 79.8-18.2-8.2 8.1 15.2z" fill="#a87c56"/><path d="m128.4 103.5 3.5-13.2-8.1 4.8 4.1 9z" fill="#b78658"/><path d="m126 106.1-6.8 5.9-3.5 12.5z" fill="#936a42"/><path d="m131.9 90.3 2.9-12.9-5.4 2.4-5.6 15.3z" fill="#936a42"/><path d="m134.8 77.4 2.2-12.8-13.2 12.9 5.6 2.3z" fill="#dbb48d"/><path d="m136.7 65.2 5.7-16.7-31.2 23.1z" fill="#dbb48d"/><path d="m142.4 48.5 1.6-13.4-32.8 36.5z" fill="#b78658"/><path d="m123.8 77.5-12.6-5.9 25.8-7z" fill="#936a42"/><path d="m108.1 73.8 3-2.2-8.7 2.1c2 .1 3.9.1 5.7.1z" fill="#db8d32"/><path d="m79.2 82.4-5.2 9.3 9.9-.2 27.5-10c0-.1-30.8.9-32.2.9z" fill="#db8d32"/><path d="m118.4 112.3-15.1 12.8 4.9 4.6 14.5-10.6z" fill="#dbb48d"/><path d="m111.4 88.7-29.2 33.7.4-.5 20.5 3.4z" fill="#a87c56"/></g><g clip-path="url(#a)"><path d="m42.6 147.3-17.9-4.5c-.1-3.5-.1-7.1 0-11l.5-4.9z" fill="#936a42"/><path d="m45 119.2 4.5-11.9-6.8-3.8-11.4 13.7z" fill="#b28e67"/><path d="m25.8 127.8-1.7-18.2 7.2 7.7z" fill="#966031"/><path d="m6.1 124.8.2-11.9 12.8-2.3z" fill="#dbb48d"/><path d="m23.7 122.9-17.5 1.8 12.9-14.1z" fill="#966031"/><path d="m25.2 127-6.1-16.4 4.6-1.3z" fill="#936a42"/><path d="m29.8 169.6-5.7-5.1c-.3-3.2.5-13.1.4-16.8l.2-4.8z" fill="#936a42"/><path d="m68 139.1-4.9-15.2-18.1-4.8 1.5 17.1z" fill="#966031"/><path d="m78.1 139 4.5-17.1-19.4 2.1 4.7 14.9z" fill="#b28e67"/><path d="m42.6 147.3-17.9-4.5 18.1 7.8z" fill="#b78658"/><path d="m15.5 97.6 19.1-25.2-15.2 6.4z" fill="#966031"/><path d="m6.2 113.4 12.9-2.3-3.6-13.1z" fill="#b78658"/><path d="m15.5 97.6-15.2 5.4 6 9.9z" fill="#dbb48d"/><path d="m44.8 165.6-2-15-19.3 27.6z" fill="#a87c56"/><path d="m42.8 150.6-18.1-7.8 5.1 26.4z" fill="#db8d32"/><path d="m23.9 109.5 7.4 7.7 11.4-13.9-1.9-14.3c-8.6 9.6-8.2 9.3-16.9 20.5z" fill="#dbb48d"/><path d="m55.1 92.1-14.2-3.2-6.3-16.5z" fill="#dbb48d"/><path d="m19.5 79.9-5.9 18.7 5 10.1 15.6-27.4z" fill="#db8d32"/><path d="m66.8 82.4-32.2-10 13.2 12.7z" fill="#a87c56"/><path d="m66.8 82.4-32.2-10 .7-3.1z" fill="#dbb48d"/><path d="m17.7 79.4-8.1 7.5 6.6 17.5 9.8-24.6z" fill="#a87c56"/><path d="m-2.7 91.2 8.4-13.9 13.7 1.5z" fill="#db8d32"/><path d="m63.1 124-.2-18.1-7.8-13.8-10.1 27z" fill="#a87c56"/></g><g clip-path="url(#a)"><path d="m84 91.4-4.4 15.8 2.9 14.7 21.5-24.9z" fill="#db8d32" opacity=".36"/></g><path clip-path="url(#a)" d="m56.2 65.5h15.2l-4.6 6.7z" fill="#966031"/><path clip-path="url(#a)" d="m56.2 65.5.2.2 10.4 6.5v10.2" fill="#dbb48d"/><path clip-path="url(#a)" d="m66.8 72.2 4.6-6.7h21.8z" fill="#dbb48d"/><path clip-path="url(#a)" d="m66.8 72.2 26.5-5.5 1.1 8.9z" fill="#936a42"/><path clip-path="url(#a)" d="m93.2 65.5h18.5l-17.2 10.2z" fill="#db8d32"/><path d="m11.7 78.5v1.6s83.9 8.8 119.6.5l.1-2z" fill="#8c8c8c" opacity=".63"/><path d="m63.3 64.7-2.1 1.8-.2 3.3-5.2 2.7-2.5.1.5-.6c2.4-.3 5.5-4.7 5.5-4.7s2.3-5.1 3.8-8.1l.2-.4z" fill="#adb71e"/><path d="m131.7 77.3v.5c0 .7-.6.7-1.2.8-.5 0-1 .2-1.5.2-.4 0-.9-.3-1.3-.4-1-.3-2-.5-3-.7-1.9-.3-3.9-.5-5.8-.6-9.6-.7-19.2-1.4-28.8-2.1-1.7-.1-3.5-.3-5.2-.2-4.1.2-8 1.7-12 2.5-3.7.7-7.5.2-11.3.2-8.5-.1-17-1.2-25.5-2.3-3.7-.5-6.2.4-9.9.5-1.9 0-4-.6-5.9-.2-1.3.3-4.7 1.3-6 .7.1 0 .2 0 .3-.1.9-.5 3-3.5 3-3.5l1.7-2.3 1.2-4.9s0-2-.5-4.7c1 .4 4-3.6 4-3.6l4.7-7.7 6.3 3.9 6.6 11.3.2.1c1.2.8 7.7 5.2 10.4 6.7.5.3.9.5 1.1.5h.4c2.4-.3 5.5-4.7 5.5-4.7s2.3-5.1 3.8-8.1l.2-.4c0 .2 3.5 3.2 3.5 3.2s2.8-1 4.1-1.5c-.6.4 2.3 4.4 2.3 4.4l4.4 2.4 3.8-.6 1.8 1.7 1.9.3.9 1.2.2.3 3.1.9s.6.8 1.4 1.6c.6.5 1.2 1 1.7 1.1.6.1 1.8-.3 2.9-.8 1.3-.5 2.5-1.2 2.5-1.2l2.2-2.9.7-.9.2-.3s.2-.3.2-.3l.4-.6.3-.3.3-.4 1.4-1.8.3-.3.1-.1.4-.5.1-.1 2.1-2.7 3.1-9.1s2.6-3.5 5.1-5.1c.6-.4 1.2-.7 1.8-.8v.1c0 1.3-.3 3 0 4.3.2 1.4.4 1 1.1 1.9 1.2 1.6 2 3.4 2.9 5.2 1.2 2.3 1.5 2 3.5 1 .5-.3 2 5.2 2.2 5.9.9 2.7 2.6 4.9 3.8 7.3 1.1 1.8 1.8 3.9 1.8 6.1z" fill="#95a027"/><path d="m78.3 68c.1-.3.3-.6.5-.9l-1.1.3-4.1-2.8-2.6-4.1-3.8.4-3.9-2 1.2 4.9 4.5 1.4 4.4 2.4 2.5 5.6h.5c0-.2.1-.4.2-.6-.1-1.6.6-3.2 1.7-4.6z" fill="#6e7508"/><path d="m116.8 45.5 1.4 4.3 3.7 5.3 1.9.8 3.8 4.4 4.5 16.4.3 1-1.6.2h.9l-7.5-12.9-1.5-5.4s-6.6-4.6-6.7-4.9-.7-5.3-.7-5.3z" fill="#6e7508"/><path d="m28.8 49.5-5.8 5.3-1 2.4-1.3.7-.6 2.9-1.7 3.7-.4 2.6-1.9 2.9-2.2.8-.5 3.5-1.4 2.8 2.4-.8.9-.2 3.4-3.5 1.7-4.1 1.8-2.1 2.3-3.9.3-3.7 2.1-.5 1.5-4.8z" fill="#adb71e"/><path d="m112.4 54.4-1.1 6.4 4.1 2.3-7.5 3.1-2.2 2.8-.6 3-5.2 1h-4.5c1.3-.5 2.5-1.2 2.5-1.2l2.2-2.9.7-.9.2-.3.2-.3.4-.6.3-.3.3-.4 1.4-1.8.3-.3.1-.1.4-.5.1-.1 2.1-2.7 3.1-9.1s2.6-3.5 5.1-5.1l1.8-.8c-.7.2-4.2 8.8-4.2 8.8z" fill="#adb71e"/><path d="m53.9 72-.5.6-12.3-3.8-5.4-6.8-1.9-5.2-3.8-3.4-1.1-3.9 6.3 3.9 6.6 11.3.2.1c1.2.8 7.7 5.2 10.4 6.7.5.3.9.5 1.1.5.1.1.2 0 .4 0z" fill="#6e7508"/><path d="m33.6 72.3c0-.1-.2-.2-.4-.2h-.2v-.1l.2-1.4c0-.1 0-.1-.1-.1s-.2 0-.2.1l-.2 1.5v.1l-1 .1v-.1l-.2-3.3c0-.1-.1-.1-.2-.1s-.2.1-.2.2l.2 3.3v.1s0 0 0 0l-.7.1v-.1l.2-1.1c0-.1 0-.1-.1-.1s-.2 0-.2.1l-.2 1.2v.1l-.9.1v-.1-1.4l.6-2.8s0 0 0-.1 0-.1 0-.1 0-.1-.1-.1-.3 0-.3.2l-.4 2c-.1 0-.2.1-.2.2v.7l-.3 1.5v.1l-.9.1v-.1l.3-3.7c0-.1-.1-.2-.1-.2-.1 0-.2.1-.2.2l-.3 3.8v.1l-.8.1v-.1-.7l-.1-4.3s0-.1-.1-.1c0 0-.1 0-.1-.1-.1 0-.2.1-.2.2l.1 5v.1l-1.5.1v-.1l.6-2.9c0-.1 0-.2-.1-.2s-.2 0-.3.2l-.6 3v.1l-1.4-.3h-.3v-.1-.3-3-2.8-.1s0 0 0-.1v-.1c0-.1-.1-.1-.1-.1h-.1s0 0-.1 0c-.2 0-.3.1-.3.3l.2 6.3v.1h-.3v.4h.3l.1 3.4c.1 0 .2-.1.4-.1h.1v-3.4h.4.1.3.7l-.7 3.2c.1 0 .2-.1.4-.1l.6-2.7.1-.5h.2.6.1s0 0 0 0l.7-.1.1 2.9c.1 0 .3-.1.4-.1l-.1-2.8h.1.6l-.2 2.8c.1 0 .2-.1.4-.1l.2-2.7h.1.7l-.5 2.6c.1 0 .2 0 .3-.1h.1l.4-2.7h.1l.1 2.4c.1 0 .2 0 .2-.1h.1v-2-.3h.1.2.1.4l-.3 2.2h.1.1l.2-1.4.1-.8h.6.1.2l.1 1.7s.1 0 .1-.1h.1l-.1-1.6h.4.4v1h.1.1l.1-.7.1-.4h.3.1.1.1.1s0 0 .1-.1c0-.4 0-.4 0-.5z" fill="#a8a8a8" opacity=".57"/><g fill="#fff"><path d="m22.3 66.6c0 .1 0 .1 0 0v.1l.1 5.9v.3.4 3.4h-.1c-.1 0-.3.1-.4.1l-.1-3.5v-.4l-.2-6.3c0-.2.1-.3.3-.3h.1c.2.1.3.2.3.3z"/><path d="m22 66.4c-.1 0-.2.2-.2.3v.4c0 .3.1.5.1.8 0 .5 0 1-.1 1.5.1-.5.1-1 0-1.5l-.1-.8c0-.1 0-.3 0-.4s.1-.2.3-.3z"/><path d="m22.2 67.3s.1-.8-.2-.9c.1 0 .2.1.2.3v.1.1l.1 5.9z" opacity=".61"/><path d="m21.8 70.9c.1.4.1.8.1 1.2v1.2c0 .4 0 .8-.1 1.2 0 .4.1.8 0 1.2 0-.4-.1-.8-.1-1.2s.1-.8.1-1.2 0-.8 0-1.2c.1-.3.1-.7 0-1.2z"/><path d="m22.3 76.8c0-.3 0-.5 0-.8s.1-.7.1-1c0-.4 0-.7 0-1.1s-.1-.7-.1-1.1c0 .4 0 .7.1 1.1v1.1 1c-.2.2-.1.5-.1.8z" opacity=".61"/><path d="m22 67.6c.1.4.1.8.1 1.3v1.3c0 .4 0 .8-.1 1.2 0 .4.1.8 0 1.2 0-.4-.1-.8-.1-1.2s.1-.8.1-1.2 0-.8 0-1.3 0-.9 0-1.3z" opacity=".61"/><path d="m22.1 72.5c0 .3 0 .6-.1.9v.9.9.9c0-.3 0-.6 0-.9s0-.6 0-.9 0-.6 0-.9c.1-.3.1-.6.1-.9z" opacity=".75"/><path d="m29.7 68.1s0 .1 0 0c0 .1 0 .1 0 0l-.6 2.9v.2l-.1.3v.2l-.1.7v.1.2.2l-.5 2.7h-.1c-.1 0-.2 0-.3.1l.5-2.7.1-.5.3-1.5.1-.3v-.2l.1-.3.4-2c0-.1.2-.2.3-.2-.2-.1-.1 0-.1.1z"/><path d="m29.5 67.9c-.1 0-.2.1-.2.2v.3c0 .2 0 .4-.1.6-.1.4-.1.8-.3 1.1.1-.4.2-.7.3-1.1l.1-.6c0-.1 0-.2.1-.3-.1-.1 0-.2.1-.2z"/><path d="m29.5 68.6s.2-.6 0-.7c.1 0 .1.1.1.2v.1l-.9 4.3z" opacity=".61"/><path d="m28.7 71.3c0 .3-.1.6-.1.9s-.1.6-.2.9-.2.6-.2.9c-.1.3-.1.6-.2.9.1-.3.1-.6.1-.9.1-.3.2-.6.2-.9.1-.3.1-.6.2-.9s.1-.6.2-.9z"/><path d="m28.1 75.6c0-.2 0-.4.1-.6s.2-.5.2-.8c.1-.3.1-.5.1-.8s.1-.5.1-.8c0 .3-.1.5-.1.8s-.1.5-.2.8c0 .3-.1.5-.2.8z" opacity=".61"/><path d="m29.3 68.8c0 .3-.1.6-.1 1 0 .3-.1.6-.2.9s-.2.6-.2.9c-.1.3-.1.6-.2.9.1-.3.1-.6.1-.9.1-.3.2-.6.2-.9.1-.3.1-.6.2-.9.1-.4.2-.7.2-1z" opacity=".61"/><path d="m28.6 72.4c-.1.2-.1.5-.2.7s-.1.5-.2.7c0 .2-.1.5-.1.7s-.1.4-.1.7c0-.2.1-.4.2-.7 0-.2.1-.5.1-.7s.1-.5.1-.7c.1-.2.2-.4.2-.7z" opacity=".75"/><path d="m31.2 68.9.2 3.3v.3.2l.1 1.6s0 0-.1 0-.1 0-.1.1l-.1-1.8v-.5l-.2-3.3c0-.1.1-.2.2-.2z"/><path d="m31 68.8c-.1 0-.1.1-.1.2v.2c0 .2 0 .3.1.5v.9c0-.3 0-.6 0-.9l-.1-.5c0-.1 0-.2 0-.2 0-.2.1-.2.1-.2z"/><path d="m31.2 68.9.2 3.3v.3-.3l-.2-2.9s0-.5-.1-.6c.1 0 .1.1.1.2z" opacity=".61"/><path d="m31.1 71.5c0 .2.1.5.1.7s0 .5.1.7v.7c0 .2.1.5 0 .7 0-.2-.1-.5-.1-.7s0-.5 0-.7 0-.5 0-.7c-.1-.2-.1-.4-.1-.7z"/><path d="m31.4 74.4c0-.2 0-.3 0-.5s0-.4 0-.6-.1-.4-.1-.6c0 .2 0 .4.1.6v.6z" opacity=".61"/><path d="m31.1 69.5c0 .3.1.5.1.8s0 .5.1.8v.8c0 .2.1.5 0 .7 0-.2-.1-.5-.1-.7 0-.3 0-.5 0-.8s0-.5 0-.8c-.1-.3-.1-.6-.1-.8z" opacity=".61"/><path d="m31.3 74.4c0-.1 0-.2 0-.3 0-.2 0-.4 0-.5 0-.2 0-.4 0-.6s0-.4 0-.6v.6.6.5z" opacity=".75"/><path d="m25 69.8c0 .1 0 .1 0 0l-.6 2.9-.1.4-.1.6-.6 2.7c-.1 0-.2.1-.4.1l.7-3.3.1-.4.6-3c0-.1.1-.2.3-.2.1.1.1.1.1.2z"/><path d="m24.8 69.6c-.1 0-.1.1-.2.1v.3c0 .2 0 .3-.1.5-.1.3-.1.7-.3 1 .1-.3.2-.7.2-1l.1-.5c0-.1 0-.2.1-.3.1 0 .1-.1.2-.1z"/><path d="m25 69.8c0 .1 0 .1 0 0l-.6 2.9-.1.4-.1.6.1-.6.1-.4.5-2.5s.2-.5 0-.6c.1.1.1.1.1.2z" opacity=".61"/><path d="m24.1 72.6c0 .3-.1.6-.1.8 0 .3-.1.6-.2.8-.1.3-.2.5-.2.8-.1.3-.1.6-.2.8.1-.3.1-.5.1-.8.1-.3.2-.5.2-.8.1-.3.1-.5.2-.8.1-.2.1-.5.2-.8z"/><path d="m23.5 76.5c0-.1 0-.3.1-.4.1-.2.2-.5.2-.7.1-.2.1-.5.1-.7s.1-.5.1-.7c0 .2-.1.5-.1.7s-.1.5-.2.7c0 .2-.1.5-.2.7z" opacity=".61"/><path d="m24.7 70.4c0 .3-.1.6-.1.9s-.1.6-.2.8c-.1.3-.2.5-.2.8-.1.3-.1.6-.2.8.1-.3.1-.6.1-.8.1-.3.2-.5.2-.8.1-.3.1-.6.2-.8.1-.3.1-.6.2-.9z" opacity=".61"/><path d="m24 73.7c-.1.2-.1.4-.2.6s-.1.4-.2.6c0 .2-.1.4-.1.6s-.1.4-.1.6c0-.2.1-.4.2-.6 0-.2.1-.4.1-.6s.1-.4.1-.6c.1-.2.1-.4.2-.6z" opacity=".75"/><path d="m30.5 71.2-.2 1.1-.1.5-.1.9-.2 1.4s0 0-.1 0h-.1l.3-2.4.1-.5.2-1.2c0-.1.1-.1.2-.1z"/><path d="m30.4 71.1c-.1 0-.1 0 0 0-.1.1-.1.2-.1.3v.3c0 .2-.1.4-.2.6.1-.2.1-.4.1-.6v-.3c0-.1 0-.1 0-.2.1-.1.1-.1.2-.1z"/><path d="m30.5 71.2-.2 1.1-.1.5-.1.9.1-.9.1-.5.1-.9s.1-.3 0-.4c.1.1.1.1.1.2z" opacity=".61"/><path d="m30 72.9v.5c0 .2 0 .3-.1.5 0 .2-.1.3-.1.5s0 .4-.1.5c0-.2 0-.3.1-.5 0-.2.1-.3.1-.5s.1-.3.1-.5c0-.1 0-.3 0-.5z"/><path d="m29.8 75.1c0-.2.1-.3.1-.5s0-.3.1-.5c0-.2 0-.3 0-.5 0 .2 0 .3-.1.5 0 .2 0 .3-.1.5.1.2 0 .3 0 .5z" opacity=".61"/><path d="m30.3 71.5v.5c0 .2 0 .3-.1.5 0 .2-.1.3-.1.5s0 .4-.1.5c0-.2 0-.3.1-.5 0-.2.1-.3.1-.5s.1-.3.1-.5c0-.1 0-.3 0-.5z" opacity=".61"/><path d="m29.8 75.1c0-.1.1-.2.1-.3s0-.3.1-.4c0-.1 0-.3.1-.4 0-.1.1-.3.1-.4 0 .1-.1.3-.1.4s-.1.3-.1.4v.4c-.2.1-.2.2-.2.3-.1 0 0 0 0 0z" opacity=".75"/><path d="m32.9 70.6c0 .1 0 .1 0 0l-.2 1.5-.1.5-.1.5-.1.7s0 0-.1 0 0 0-.1 0l.2-1.3.1-.5.2-1.5c0-.1.1-.1.2-.1z"/><path d="m32.8 70.5c-.1 0-.1 0-.1.1v.2.3c0 .2-.1.4-.2.6.1-.2.1-.4.1-.6v-.3c0-.1 0-.1 0-.2.1 0 .1-.1.2-.1z"/><path d="m32.9 70.6c0 .1 0 .1 0 0l-.2 1.5-.1.5-.1.5.1-.5.1-.5.2-1.2s.1-.3 0-.4z" opacity=".61"/><path d="m32.1 73.9c0-.2.1-.3.1-.5s.1-.3.1-.5 0-.4 0-.5c0 .2 0 .3-.1.5 0 .2 0 .3-.1.5.1.2 0 .4 0 .5z"/><path d="m32.3 73.8c0-.1 0-.1 0-.2 0-.2 0-.3 0-.5 0 .2 0 .3-.1.5.1.1.1.2.1.2 0 .1 0 .1 0 0z" opacity=".61"/><path d="m32.7 71v.5c0 .2 0 .3-.1.5 0 .2-.1.3-.1.5s0 .4-.1.5c0-.2 0-.3.1-.5 0-.2.1-.3.1-.5s.1-.3.1-.5 0-.3 0-.5z" opacity=".61"/><path d="m32.2 73.9c0-.2.1-.3.1-.4s.1-.3.1-.4c0 .1-.1.3-.1.4s-.1.2-.1.4z" opacity=".75"/><path d="m26.2 67.5c0 .1 0 .1 0 0l.1 4.4v.7.4l.1 2.9c-.2 0-.3 0-.4.1l-.1-2.9v-.4l-.1-5c0-.1.1-.2.2-.2.1-.1.2-.1.2 0z"/><path d="m26 67.4c-.1 0-.1.1-.1.2v.2c0 .2 0 .3.1.5 0 .3 0 .7-.1 1 0-.4 0-.7 0-1v-.5c0-.1 0-.2 0-.2 0-.1 0-.2.1-.2z"/><path d="m26.2 68s0-.5-.1-.6c.1 0 .1.1.2.1l.1 4.3z" opacity=".61"/><path d="m25.9 70.6c0 .3.1.6.1 1v1c0 .4 0 .7-.1 1.1 0 .4.1.8 0 1.1 0-.4-.1-.8-.1-1.1 0-.4 0-.7 0-1.1 0-.3 0-.7 0-1 .2-.4.1-.7.1-1z"/><path d="m26.3 75.9c0-.3 0-.6 0-.9s.1-.7 0-1c0-.3 0-.7 0-1s-.1-.6-.1-.9c0 .3 0 .6.1.9v1 1c-.1.3 0 .6 0 .9z" opacity=".61"/><path d="m26 68.1c0 .3.1.6.1.9v.9.9c0 .3.1.7 0 1 0-.3-.1-.7-.1-1s0-.6 0-.9 0-.6 0-.9c.1-.3 0-.6 0-.9z" opacity=".61"/><path d="m26.1 71.8v.8.8.9.9c0-.3 0-.6 0-.9s0-.6 0-.9 0-.6 0-.8c0-.3 0-.5 0-.8z" opacity=".75"/><path d="m27.8 68.7c0 .1 0 .1 0 0l-.3 3.8v.3.2l-.2 2.8c-.1 0-.2 0-.4.1l.2-2.8v-.5l.3-3.8c0-.1.1-.2.2-.2.2 0 .2 0 .2.1z"/><path d="m27.6 68.6c-.1 0-.1.1-.1.2v.3.5c0 .3 0 .7-.2 1 .1-.3.1-.7.1-1v-.5c0-.1 0-.2 0-.3.1-.2.2-.2.2-.2z"/><path d="m27.8 68.7c0 .1 0 .1 0 0l-.3 3.8v.3-.3l.2-3.4s.1-.5-.1-.6c.2.1.2.1.2.2z" opacity=".61"/><path d="m27.3 71.6v.9c0 .3 0 .6-.1.9 0 .3-.1.6-.1.9s0 .6-.1.9c0-.3 0-.6 0-.9s.1-.6.1-.9.1-.6.1-.9 0-.6.1-.9z"/><path d="m27.2 75.8c0-.2 0-.4 0-.6 0-.3.1-.5.1-.8s0-.5 0-.8 0-.5 0-.8v.8c0 .3 0 .5-.1.8 0 .3-.1.5-.1.8 0 .2.1.4.1.6z" opacity=".61"/><path d="m27.6 69.3v.9c0 .3 0 .6-.1.9 0 .3-.1.6-.1.9s0 .6-.1.9c0-.3 0-.6 0-.9s.1-.6.1-.9 0-.6.1-.9.1-.6.1-.9z" opacity=".61"/><path d="m27.3 72.7c0 .2-.1.4-.1.7 0 .2-.1.4-.1.7v.7c0 .2-.1.5-.1.7 0-.2.1-.4.1-.7 0-.2 0-.5 0-.7s0-.5.1-.7c.1-.3.1-.5.1-.7z" opacity=".75"/><path d="m29.1 70.3v.2.4.1 1.4.5.4 2h-.1c-.1 0-.2 0-.2.1l-.1-2.5v-.2-.3-.4-.2-.9-.7c0-.1.1-.2.2-.2.1.1.1.2.2.3 0-.1 0-.1 0 0z"/><path d="m28.9 70.1c-.1 0-.1.1-.1.1v.2c0 .1 0 .3.1.4 0 .3 0 .5-.1.8 0-.3 0-.5 0-.8v-.4c0-.1 0-.1 0-.2-.1 0 0-.1.1-.1z"/><path d="m29.1 70.3v.2.4.1 1.4.5.4-.4-.5l-.1-1.2v-.1-.4-.1-.1c0-.1 0-.3-.1-.3.1-.1.1 0 .2.1 0-.1 0-.1 0 0z" opacity=".61"/><path d="m28.8 72.4c0 .2.1.4.1.6v.6.6c0 .2.1.4 0 .6 0-.2-.1-.4-.1-.6s0-.4 0-.6 0-.4 0-.6 0-.4 0-.6z"/><path d="m29.1 75.3c0-.1 0-.2 0-.2 0-.2 0-.4 0-.6s0-.4 0-.6 0-.4-.1-.6v.6.6.6s.1.1.1.2z" opacity=".61"/><path d="m28.9 70.7c0 .2.1.4.1.6v.6.6c0 .2.1.4 0 .6 0-.2-.1-.4-.1-.6s0-.4 0-.6 0-.4 0-.6 0-.4 0-.6z" opacity=".61"/><path d="m29 73.2v.5.5.5.5c0-.2 0-.3 0-.5s0-.3 0-.5 0-.3 0-.5 0-.3 0-.5z" opacity=".75"/><path d="m33.3 72.4c0 .1 0 .1 0 0v.1s0 0-.1.1c0 0 0 0-.1 0h-.1s0 0-.1 0l-6.9.5-3.2.2h-.5l-.8.1v-.4h.4l.8-.1 9.7-.8h.3.2c.2 0 .4.1.4.3z"/><path d="m33.2 72.4c0-.1-.2-.1-.3-.1s-.3 0-.4.1c-.3 0-.6.1-.9.1-.6.1-1.2.1-1.8 0 .6 0 1.2 0 1.7-.1l.9-.1h.5c.2-.1.3 0 .3.1z"/><path d="m32.2 72.6s1 0 1.1-.2c0 .1-.2.2-.3.2 0 0 0 0-.1 0 0 0 0 0-.1 0l-6.8.5z" opacity=".61"/><path d="m28 72.6c-.5.1-1 .1-1.4.2-.5 0-.9.1-1.4.1s-.9 0-1.4 0-.9.1-1.4.1c.5 0 .9-.1 1.4-.2h1.4c.5 0 .9-.1 1.4-.1.4 0 .9 0 1.4-.1z"/><path d="m24.6 73.1c-.4 0-.8.1-1.2.1s-.8 0-1.2 0c-.2 0-.4.1-.7.1.2 0 .4-.1.6-.1h1.2c.4 0 .9 0 1.3-.1.4 0 .8-.1 1.2-.1-.4 0-.8.1-1.2.1z" opacity=".61"/><path d="m31.9 72.5c-.5.1-1 .1-1.5.2-.5 0-1 .1-1.5.1s-1 0-1.4 0c-.5 0-1 .1-1.4.1.5 0 .9-.1 1.4-.2h1.4c.5 0 1-.1 1.5-.1s1-.1 1.5-.1z" opacity=".61"/><path d="m26.2 72.9c-.4 0-.7 0-1.1 0s-.7 0-1.1.1c-.4 0-.7.1-1.1.1s-.7 0-1.1.1h1.1c.4 0 .7-.1 1.1-.1s.7 0 1.1-.1c.3 0 .7 0 1.1-.1z" opacity=".75"/><path d="m21.8 73s.6.3.6.4h.8s-.8-.3-.8-.4c-.1 0-.6 0-.6 0z" opacity=".42"/><path d="m23.9 72.9s.5.3.5.4h.8s-.8-.3-.8-.4-.5 0-.5 0z" opacity=".42"/><path d="m25.9 72.7s.5.4.5.4.7-.1.7-.1-.7-.4-.7-.4c0 .1-.5.1-.5.1z" opacity=".42"/><path d="m27.1 72.6s.4.4.5.4c0 0 .7-.1.7-.1s-.7-.4-.7-.4c-.1.1-.5.1-.5.1z" opacity=".42"/><path d="m28.4 72.5s.6.4.6.4h.5s-.7-.4-.7-.4c-.1 0-.4 0-.4 0z" opacity=".42"/><path d="m28.7 72.5s.8.4.9.4h.6s-1.1-.4-1.1-.4c0-.1-.4 0-.4 0z" opacity=".42"/><path d="m30 72.4s.7.4.8.4c0 0 .5-.1.5-.1s-1-.4-1-.4-.2.1-.3.1z" opacity=".42"/><path d="m31 72.3s.7.4.8.5c0 0 .7-.1.7-.1s-1.1-.4-1.1-.4-.3 0-.4 0z" opacity=".42"/><path d="m33.3 72.4c0 .1 0 .1 0 0-.1.1-.1.2-.1.2s0 0-.1 0c-.2-.1-.7-.4-.7-.4h.3s.4 0 .6.2z" opacity=".42"/></g><path d="m91.6 50.7-.9 6-1.8 1.5-1.3 1.4-.6 3.5-2.3 1.4-3 1-2.1 2.6v.6l-.7 4.2-3.2-.3 1.8-4.8.2-.5 1.6-2 1.2-1.5 1.6-.8 2.6.4 1.2-3.3 1.1-3 2-.3.7-1.6 1-2.4z" fill="#adb71e"/><path clip-path="url(#b)" d="m132.4 77.5c0 2-13.9 3.7-34.1 4.5-3.5.1-7.3.3-11.1.3-5 .1-10.2.2-15.6.2-33.6 0-60.8-2.2-60.8-5 0-2.3 19.2-4.3 45.3-4.8h2.2c4.3-.1 8.7-.1 13.2-.1 4.6 0 9 0 13.2.1 5.2.1 10.2.2 14.8.4 6.1.3 11.6.6 16.2 1h.1c4.7.4 8.6.9 11.4 1.4 3.4.6 5.2 1.3 5.2 2z" fill="#48680c"/><g clip-path="url(#b)" opacity=".43"><path d="m130.2 75-21.6 1 10.1-2.6h.1c4.7.5 8.6 1 11.4 1.6z" fill="#afdb53"/><path d="m108.6 76-7.4 6.1c-3.5.2-7.3.3-11.1.4h-4.9z" fill="#77933e"/><path d="m108.6 76-17.2.6 8.2 2z" fill="#98b269"/><path d="m91.4 76.6-6.1 6 14.3-4z" fill="#afdb53"/><path d="m118.1 73.4-15.5 1 6 1.6 10.2-2.6z" fill="#9cb75a"/><g opacity=".42"><path d="m85.5 82.6-18.5 1.1 8.8-2.7c4 .5 9.7 1.6 9.7 1.6z" fill="#afdb53"/><path d="m129.2 79.6-6.1 2.1c-3.3.2-13.2.3-17 .4l-4.9.1z" fill="#77933e"/><path d="m104.8 74.2-19-2.4 11.7 1.9z" fill="#98b269"/><path d="m117.7 73.3-30.9-1.5 16.9.2z" fill="#98b269"/><path d="m108.6 76-7.4 6.2 10.8-6.3z" fill="#9cb75a"/><path d="m67.3 83.7-5.7-1.8h-19.3z" fill="#9cb75a"/><path d="m140.8 75.1h-12.7l8.1 5.8z" fill="#afdb53"/><path d="m112 75.9-10.8 6.3 27.6-2.6z" fill="#97db37"/></g><path d="m73 72.7-18.4 1 8.9-2.7c4 .6 7.2 1.1 9.5 1.7z" fill="#afdb53"/><path d="m80.5 76.2-31.6 2.4 5.7-4.9z" fill="#97db37"/><path d="m118.5 73.4-33-1.6 19.7 2.4z" fill="#77933e"/><path d="m54.6 73.7-16.1.5 7.9 2.2z" fill="#98b269"/><path d="m38.5 74.2-7.2 7 15.1-4.8z" fill="#92a851"/><path d="m63 71-13.9.9 5.5 1.8 9-2.7z" fill="#9cb75a"/><path d="m65.8 71.4 6.5 1.2 13.2-.8z" fill="#77933e"/><path d="m5.2 74.9-14 1.6 40.1 4.7z" fill="#9cb75a"/><path d="m36.5 76.4-5.2 4.8-9.1-7z" fill="#77933e"/><path d="m80.5 76.2-25.9-2.5 32.4 1.9z" fill="#92a851"/><path d="m79.7 74.2-24.9-.5 17.8-1z" fill="#98b269"/><path d="m72.3 72.6 13.2-.8 12.2 1.9" fill="#9cb75a"/></g><path d="m43.9 73.5-2-13.2-1.5 13.2z" fill="#a8a8a8" opacity=".57"/><path d="m43.7 73.5-2-13.2-1.5 13.2z" fill="#198913"/><path d="m40.7 73.4-1.5-9.3-1 9.4z" fill="#a8a8a8" opacity=".57"/><path d="m40.6 73.4-1.5-9.3-1 9.4z" fill="#199b12"/><path d="m38.6 73.7-2-13.2-1.5 13.2z" fill="#a8a8a8" opacity=".57"/><path d="m38.4 73.6-2-13.1-1.5 13.2z" fill="#198913"/><path d="m76.9 72.8-1.1-7.8-1 7.8z" fill="#107f0d"/><path d="m35.5 73.8-1.6-9.2-.9 9.3z" fill="#a8a8a8" opacity=".57"/><path d="m35.4 73.8-1.7-9.2-.8 9.3z" fill="#199b12"/><path d="m33.1 73.9-1.1-7-.8 7z" fill="#a8a8a8" opacity=".57"/><path d="m32.9 73.9-1.1-7-.8 7z" fill="#107f0d"/><path d="m76.2 75.3-2.2-16-2.1 16z" fill="#199b12"/><path d="m73.2 68.7h.1v.4h-.1z" fill="#151526"/><path d="m73.1 69.2h.2v4.3h-.2z" fill="#30303a"/><path d="m73 73.4h.4v2h-.4z" fill="#151526"/><path d="m73.1 69h.3v.3h-.3z" fill="#151526"/><path d="m73 73.4h.1v2h-.1z" fill="#1e1e35"/><circle cx="73.2" cy="68.3" fill="#f7ee84" r=".6"/><path d="m73.6 67.8c.1.1.2.3.2.4 0 .3-.3.6-.6.6-.1 0-.3 0-.3-.1.1.1.3.2.4.2.3 0 .6-.3.6-.6 0-.2-.1-.4-.3-.5z" fill="#c1b95d" opacity=".39"/><path d="m72.7 68.3c0-.3.3-.6.6-.6h.1c-.1 0-.1 0-.2 0-.3 0-.6.2-.5.6-.1.3.2.5.4.6-.2-.1-.4-.3-.4-.6z" fill="#fffacf"/><path d="m73.1 67.9c.1 0 .1 0 .2-.1-.1-.1-.3 0-.2.1-.2 0-.2 0-.2.1v.1s.1 0 .1-.1c0 0 0-.1.1-.1z" fill="#fffefa"/><path d="m73.6 75.6h-.7l.1-.3h.4z" fill="#1d1d33"/><path d="m73.1 75.3-.2.3z" fill="#5c5c7c"/><path d="m73.9 75.8h-1.3l.3-.4h.7z" fill="#19192d"/><path d="m72.9 75.4-.3.4z" fill="#5c5c7c"/><path d="m86.1 72.8-.5-4.5-.6 4.5z" fill="#198913"/><path d="m112.2 73.8-.6-4.6-.6 4.6z" fill="#0e7009"/><path d="m113.4 73.9-.7-5-.7 5z" fill="#20891a"/><path d="m110.3 73.9-.8-5.4-.7 5.4z" fill="#198913"/><path d="m120.6 74.6-.8-6.1-.8 6.1z" fill="#107f0d"/><path d="m104.8 73.4-.5-3.5-.5 3.5z" fill="#107f0d"/><path d="m106 73.5-.4-3.5-.5 3.5z" fill="#107f0d"/><path d="m84.1 72.8-.7-5.1-.6 5.1z" fill="#107f0d"/><path d="m129 75.9-.9-8.1-.9 8.1z" fill="#0e7009"/><path d="m79.7 72.9-.7-5.5-.7 5.5z" fill="#198913"/><path d="m81.1 72.9.9-4.2.9 4.1c0 .1-1.9.1-1.8.1z" fill="#0e7009"/><path d="m81.6 73-1.1-7.8-1 7.8z" fill="#1a9113"/><path d="m39 74 4.3-.4.4.1-4.7.5z" fill="#b85328" opacity=".22"/><path d="m77.8 75.1-1-6.8-.9 6.8z" fill="#199b12"/><path d="m100.3 75.9.5-.7.1.6.2-.2.2.2.4.2-.4.3z" fill="#48680c"/><path d="m116.3 76.7.5-.8.2.6.1-.2.2.2.4.2-.4.3z" fill="#48680c"/><path d="m117.3 76.8.5-.9.2.7.2-.2.2.2.4.2-.4.3z" fill="#48680c"/><path d="m56.6 76.9c.3-.2.7-.3 1.3-.4 1-.2 2.1-.2 3.1-.3 1.9-.1 3.9-.3 5.8-.4 1-.1 1.9-.1 2.9-.2.9-.1 1.9-.3 2.7-.2.3 0 .6.2.8.5-1.9.2-3.8.6-5.7.7-2.9.2-5.8.5-8.7.7-1 .1-1.9.4-2.9.2.3-.3.5-.5.7-.6z" fill="#b85328" opacity=".22"/><path d="m60 77.3c-.4-.1-.9-.1-1.4 0-.4 0-.9 0-1.3.3 0 .1.1.1.1.1h.3.4c.4 0 .7 0 1.1-.1.3 0 .5 0 .8-.1.1 0 .1 0 .2-.1 0 .1-.1-.1-.2-.1z" fill="#b85328" opacity=".22"/><path d="m102.9 72.4c-.1 0-.1 0-.1 0-.1 0-.1 0-.2-.1-.1 0-.2-.1-.3-.1l-.3-.1c.1 0 .1-.1.2-.1s-.3 0-.4-.1h-.1l-.2-.1c-.1 0-.6-.2-.7-.2h-.1-.1.1s0 0-.1 0 0 0-.1 0h.1.1-.1s0 0-.1 0h.1s0 0-.1 0h-.1s-.1 0-.1.1c0 0 .6.2.6.2.2.1.4.1.6.2-.1 0-.2.1-.3.2l-.5-.1c-.2 0-.3-.1-.5-.1-.1 0-.2-.1-.3-.1h-.1-.1s0 0-.1 0h-.1s0 0-.1 0h.1c.1 0 .1 0 .2.1.1 0 .3.1.4.1h.1c.2.1.4.1.6.2s0 0-.1 0h-.1.1c-.2.1-.4.2-.7.4-.5.3-1.2.6-2 1h-.1c-.1.1-.1.2-.1.3v.1h.1.1c.2 0 .3.1.5 0 0 0 .1-.1.1-.1.2-.1.3-.2.4-.3.4-.2.8-.5 1.1-.7.4-.3.8-.5 1.1-.7.2.1.4.1.5.2 0 0 .7.2.7.2s.1 0 .1-.1h-.1s0 0-.1 0h.1s0 0 0 0 0 0-.1 0h-.1.1.1s0 0-.1 0h.1-.1c-.1 0-.7-.2-.8-.2h-.2s.1-.1.1-.1.1 0 .1-.1 0 0-.1 0c.1 0 .3.1.4.1h.1c.1 0 .2.1.3.1h.2c.4 0 .4 0 .5-.1 0 .1 0 .1 0 0z" fill="#a8a8a8" opacity=".63"/><path d="m97.9 68.6v1.8c0 .9-.1 1.8-.1 2.6v1 .3.1c0 .1-.1.1-.2.1 0 0 0 0-.1 0 0 0 0 0-.1 0-.1-.1-.2-.1-.2-.2 0 0 0 0 0-.1 0-.6 0-1.1 0-1.7 0-.8 0-1.6 0-2.4 0-.4 0-.8 0-1.2.3-.2.7-.3.7-.3z" fill="#6d4107"/><path d="m97.9 68.6c0 .6 0 1.2-.1 1.8 0 .9-.1 1.8-.1 2.6v1 .3.1c0 .1-.1.1-.2.1 0 0 0 0-.1 0 0 0 0 0-.1 0-.1-.1-.2-.1-.2-.2 0 0 0 0 0-.1 0-.6 0-1.1 0-1.7 0-.8 0-1.6 0-2.4 0-.4 0-.8 0-1.2.4-.1.8-.3.8-.3z" fill="#ab6b0a"/><path d="m97.3 71.9v.8c0 .4-.1.7 0 1.1 0-.5 0-1 .1-1.4 0-.8.1-1.6-.1-2.3-.1.5 0 1.2 0 1.8z" fill="#946921" opacity=".58"/><path d="m97.4 71.3c0-.8.1-1.6 0-2.3v.8c.1.5.1 1 0 1.5z" fill="#946921" opacity=".58"/><path d="m97.6 73.1v1.2c0-.3 0-.6.1-.9 0-.2 0-.4 0-.7 0-.2 0-.4 0-.6s0-.4 0-.6c-.1.6-.1 1.1-.1 1.6z" fill="#825512" opacity=".5"/><path d="m97.5 71v.4.1h.1v-.1c0-.2 0-.3 0-.5 0-.1 0-.2 0-.3s0-.1.1-.2c0-.1 0-.2 0-.3 0-.3-.1-1-.1-1.3-.1.2 0 .9 0 1.1v.6c0 .3-.1.6-.1 1 0-.2 0-.4 0-.5s.1-.2.1-.3.1-.7 0-.7c-.1.3-.1.6-.1 1z" fill="#70460f" opacity=".57"/><path d="m97.4 73.5c0 .2-.1.5 0 .7s0 0 0-.1c0-.6.1-1.3.1-1.9v.2.7c0 .2 0 .4-.1.5 0-.1 0-.3 0-.4s0-.3 0-.5 0-.7 0-.8c0 .6.1 1.1 0 1.6z" fill="#825512" opacity=".25"/><path d="m99.5 69.3c-.1 0-.1 0-.2 0s-.2 0-.3 0c-.2 0-.4 0-.6 0l-1.5-.1c-.2 0-.9-.1-1.1-.1h-.1.2.1.2.2.5.4c.2 0 .4 0 .5.1h.3.3.6.3c0 .1.2.1.2.1-.1 0 0 0 0 0z" fill="#946921"/><path d="m95.8 69.6s.1 0 0 0c.1 0 .1 0 0 0h.1-.1c-.1 0-.1 0-.2 0h.1z" fill="#946921"/><path d="m95.6 69.4c-.1 0-.1 0 0 0h.2c-.1 0-.1 0-.2 0z" fill="#946921"/><path d="m99.5 69.3v.2.1.1.1.1s0 0-.1 0-.1-.1-.2-.1c0 0 0 0 0-.1 0 0 0 0 0-.1.1-.1.1-.2.1-.2v-.1-.1s0 0 0-.1c.1.2.1.2.2.2z" fill="#7c5316"/><path d="m95.6 69.8h.2c-.1 0-.1 0-.2 0v.4h.8.8 1.2.1.4.2.1v-.1h-.1.1.1v-.1h.1c0-.1 0-.1 0-.2 0 0 0 0-.1 0h.1v-.1-.1c-.1 0-.2 0-.3 0s-.2 0-.3 0c-.2 0-.5 0-.7-.1-.3 0-.7 0-1.1-.1-.2 0-.4 0-.7 0-.1 0-.2 0-.4 0h-.1s-.1 0-.2 0 0 0-.1.1c0 0 0 .1-.1.1 0 .1-.1.1 0 .2h.2-.1v.1h.1.1.1.1-.1-.1-.1c0-.3 0-.2 0-.1" fill="#bf8421"/><path d="m99.1 69.9h-1.5 1.6z" fill="#875d1d"/><g fill="#946921"><path d="m97.6 69.4c.3 0 .6 0 .9.1h.8s-.2 0-.3 0-.3 0-.4 0c-.3 0-.6 0-1-.1z"/><path d="m97.6 69.4c-.3 0-.5 0-.8 0s-.7 0-1 0h.4.5z"/><path d="m99.2 69.3c-.4 0-.9 0-1.5-.1-.6 0-1.4-.1-2.2-.1-.1-.1.8 0 .9 0 .4 0 .8.1 1.1.1.7.1 1.3.1 1.7.1z"/><path d="m97.5 69.6c-.2 0-.4 0-.6 0-.3 0-.8 0-1.2 0h.8z"/><path d="m97.2 69.8h.3.3.7c-.1 0-.1 0-.2 0h-.1c-.1 0-.2 0-.2 0-.2 0-.5 0-.8 0-.2 0-.4 0-.6 0-.1 0-.2 0-.3 0s-.2 0-.3 0-.2 0-.4 0h-.1.2.2.5z"/><path d="m98.8 69.7c-.2 0-.5 0-.7 0s-.4.1-.6.1h-.1.7.2.3.9c-.1 0-.2 0-.3 0-.2-.1-.3-.1-.4-.1z" opacity=".56"/><path d="m96.5 70h.7.5.1c-.2 0-.3 0-.5 0-.1 0-.1 0-.2 0s-.2 0-.3 0c-.4 0-.8 0-1.2 0h.5z" opacity=".56"/><path d="m97.6 69.3h.5.2c.4 0 .7 0 1 .1-.1 0-.1 0-.2 0s-.2 0-.3 0c-.2 0-.5 0-.8 0 0-.1-.2-.1-.4-.1z" opacity=".56"/><path d="m98.4 69.6c-.1 0-.3 0-.5 0s-.4 0-.6 0c-.3 0-.7 0-1.1 0h.9.8 1.3c.1 0-.3 0-.4 0 0 0-.2 0-.4 0z" opacity=".56"/></g><path d="m98 70.1c-.1 0-.1 0 0 0-.1 0-.2 0-.3 0h.2z" fill="#6d4107"/><path d="m96.1 69.4c-.1 0-.2 0-.3 0 0 .1.1.1.3 0 .8.1 1.6.1 2.2.1-.3 0-.6 0-.9 0-.4 0-.7 0-1.1 0h.4.7c-.1 0-.4 0-.5 0-.3-.1-.6-.1-.8-.1z" fill="#825512" opacity=".25"/><path d="m98 70c-.1 0-.2 0-.2 0h1.4c-.4 0-.8 0-1.2 0h.5c-.1 0-.3 0-.5 0z" fill="#825512" opacity=".25"/><path d="m95.7 69.1s-.1-.1 0 0c0-.1.3 0 .4 0h.2c-.1 0-.1 0-.2 0s-.1 0-.2 0c0-.1-.1-.1-.2 0 0-.1 0-.1 0 0z" fill="#bf8421"/><path d="m95.5 69.3c0-.1 0-.1 0 0z" fill="#bf8421"/><path d="m95.7 69.4c-.2 0-.2 0-.2.1v-.1h.1.1s.1 0 0 0z" fill="#bf8421"/><path d="m95.9 69.6h-.1-.1z" fill="#bf8421"/><path d="m95.5 70.8h.2.3.6l1.5-.1c.2 0 .9-.1 1.1-.1 0 0 .2 0 .1 0 0 0-.1 0-.2 0h-.1c-.1 0-.1 0-.2 0s-.2 0-.2 0c-.2 0-.3 0-.5 0-.1 0-.2 0-.4 0s-.4 0-.5 0-.2 0-.3 0-.2 0-.3 0c-.2 0-.4 0-.6 0-.1 0-.2 0-.3 0 0 .2-.2.3-.2.2z" fill="#946921"/><path d="m99.2 71.1c-.1 0-.1 0 0 0-.1 0-.1 0-.1 0h.1.2s0 0-.1 0-.1 0-.1 0z" fill="#946921"/><path d="m99.4 70.9s0 .1 0 0c0 .1-.1.1 0 0-.2 0-.2 0-.2 0h.2c-.1 0-.1 0 0 0z" fill="#946921"/><path d="m95.5 70.8v.2s0 0 0 0v.1.1.1.1h.1c.1 0 .1-.1.2-.1 0 0 0 0 0-.1 0 0 0 0 0-.1-.1-.1-.1-.1-.1-.2v-.1s0 0 0-.1c-.1.1-.2.1-.2.1z" fill="#7c5316"/><path d="m99.3 71.3c-.1 0-.1 0-.2 0h.2c.1 0 .1 0 0 0v.3h-.8c-.3 0-.5 0-.8 0-.4 0-.8 0-1.2 0h-.1c-.1 0-.3 0-.4 0s-.2 0-.2 0h-.1v-.1h.1-.1-.1v-.1h-.1v-.1h.1s0 0-.1 0v-.1-.1h.3.3.7c.3 0 .7 0 1.1-.1h.7.4.1.2c.1 0 0 0 .1.1 0 0 0 .1.1.1 0 0 .1.1 0 .1s-.1 0-.2 0h.1v.1h-.1-.1-.1-.1.1.1.1c.1-.3.1-.2 0-.1" fill="#bf8421"/><path d="m95.8 71.4h1.6z" fill="#875d1d"/><path d="m97.3 71c-.3 0-.6 0-.9 0s-.5 0-.8 0h.3.4z" fill="#946921"/><path d="m97.4 71h.8 1s-.3 0-.4 0c-.2 0-.4 0-.5 0-.3 0-.6 0-.9 0z" fill="#946921"/><path d="m95.7 70.9c.4 0 .9 0 1.5-.1.6 0 1.4 0 2.2-.1.1-.1-.8 0-.9 0-.4 0-.7 0-1.1.1-.7.1-1.2.1-1.7.1z" fill="#946921"/><path d="m97.4 71.1h.6 1.2c-.2 0-.6 0-.8 0-.3 0-.7.1-1 0z" fill="#946921"/><path d="m97.7 71.3c-.1 0-.2 0-.3 0s-.2 0-.3 0c-.3 0-.5 0-.7 0h.2.1.2.8.6.3.3.4.1-.2c-.1 0-.1 0-.2 0-.2 0-.3 0-.5 0s-.5 0-.8 0z" fill="#946921"/><path d="m96.2 71.2h.7.6.1c-.2 0-.4 0-.7 0-.1 0-.1 0-.2 0s-.2 0-.3 0c-.3 0-.6 0-.9 0h.3z" fill="#946921" opacity=".56"/><path d="m98.5 71.4c-.3 0-.5 0-.7 0s-.3 0-.5 0h-.1.5.2.3 1.2c-.2 0-.3 0-.5 0s-.3 0-.4 0z" fill="#946921" opacity=".56"/><path d="m97.3 70.9c-.2 0-.4 0-.5 0s-.2 0-.2 0c-.4 0-.7 0-1 0h.2.3.8z" fill="#946921" opacity=".56"/><path d="m96.5 71.1h.5.6 1.1c-.3 0-.7 0-.9 0-.3 0-.6 0-.8 0-.5 0-.9 0-1.3 0h.4z" fill="#946921" opacity=".56"/><path d="m97 71.5s.1 0 0 0h.3c-.1 0-.2 0-.2 0s0 0-.1 0z" fill="#6d4107"/><path d="m98.9 71h.3c-.1 0-.2 0-.3 0-.8.1-1.6.1-2.2.1h.9 1.1c-.1 0-.3 0-.4 0-.2 0-.5 0-.7 0h.5c.3-.1.5-.1.8-.1z" fill="#825512" opacity=".25"/><path d="m96.9 71.4h.2c-.5 0-1 0-1.4 0h1.2c-.2 0-.3 0-.5 0z" fill="#825512" opacity=".25"/><path d="m99.3 70.7c0-.1-.3 0-.4 0s-.1 0-.2 0h.2.2s0-.1.2 0c0-.1 0 0 0 0z" fill="#bf8421"/><path d="m99.5 70.8c-.1 0-.1 0 0 0-.1.1-.1.1 0 0z" fill="#bf8421"/><path d="m99.2 70.9s.1.1 0 0c.2 0 .2 0 .2.1v-.1s0 0-.1 0c0 0 0 0-.1 0z" fill="#bf8421"/><path d="m99.1 71.1h.1.1s-.1 0-.2 0z" fill="#bf8421"/><path d="m80.8 74.9.5-.1h15.5l-2 1-14.9.1" fill="#a8a8a8" opacity=".57"/><path d="m41.7 72.1h-12.4l.8-.3h10.5l1 .3z" fill="url(#c)"/><path d="m32.5 51.5s1.8-.6 5.2 0l-2.5.3-2.3-.1z" fill="#a57f32"/><path d="m31.9 54.9s2.2-.7 6.4 0l-3.1.3-2.9-.1z" fill="#a57f32"/><path d="m30.8 63.3s3.1-.9 8.9 0l-4.3.4-4-.1z" fill="#a57f32"/><path d="m30.2 67.8s3.6-1 10.1 0l-4.9.5-4.6-.1z" fill="#a57f32"/><path d="m31.4 58.7s2.7-.9 7.6 0l-3.7.4-3.4-.1z" fill="#a57f32"/><path d="m41 74.2h-11.2l3.3-24.3h4.1z" fill="#fff"/><path d="m29.3 72.1h12.4v3.3h-12.4z" fill="#d3d3d3"/><path d="m41.7 72.4c-10.4.3-13.1.3-12.9.1h.5v.1z" fill="#fff"/><path d="m41.7 72.4c-10.4.3-12.7.2-12.9.2-.1 0 .5-.1.5-.1v.1z" fill="#dee0de"/><path d="m41.7 72.8c-10.4.3-13.1.3-12.9.1h.5v.1z" fill="#fff"/><path d="m41.7 72.8c-10.4.3-12.7.2-12.9.1-.1 0 .5-.1.5-.1v.1z" fill="#dee0de"/><path d="m41.7 73.2c-10.4.3-13.1.3-12.9.1h.5v.1z" fill="#fff"/><path d="m41.7 73.2c-10.4.3-12.7.2-12.9.2-.1 0 .5-.1.5-.1v.1z" fill="#dee0de"/><path d="m41.7 73.6c-10.4.3-13.1.3-12.9.1h.5v.1z" fill="#fff"/><path d="m41.7 73.6c-10.4.3-12.7.2-12.9.2-.1 0 .5-.1.5-.1v.1z" fill="#dee0de"/><path d="m41.7 74.1c-10.4.3-13.1.3-12.9.1h.5v.1z" fill="#fff"/><path d="m41.7 74c-10.4.3-12.7.2-12.9.2-.1 0 .5-.1.5-.1v.1z" fill="#dee0de"/><path d="m41.7 74.5c-10.4.3-13.1.3-12.9.1h.5v.1z" fill="#fff"/><path d="m41.7 74.4c-10.4.3-12.7.2-12.9.2-.1 0 .5-.1.5-.1v.1z" fill="#dee0de"/><path d="m41.7 74.9c-10.4.3-13.1.3-12.9.1h.5v.1z" fill="#fff"/><path d="m41.7 74.8c-10.4.3-12.7.3-12.9.2-.1 0 .5-.1.5-.1v.1z" fill="#dee0de"/><path d="m41.7 72.1h-12.4 12.3z" fill="url(#d)"/><path d="m37.7 52.6c-1.7.1-3.5.1-5.2 0 0-.4 0-.7 0-1.1 1.7.1 3.5.1 5.2 0z" fill="#e2b550"/><path d="m38.3 56.4c-2.2.1-4.3.1-6.5 0 0-.5 0-1 0-1.5 2.2.1 4.3.1 6.5 0z" fill="#e2b550"/><path d="m39 60.6c-2.5.2-5.1.2-7.6 0 0-.6 0-1.2 0-1.9 2.5.2 5.1.2 7.6 0z" fill="#e2b550"/><path d="m39.7 65.2c-3 .2-5.9.2-8.9 0 0-.6 0-1.2 0-1.9 3 .2 5.9.2 8.9 0z" fill="#e2b550"/><path d="m40.4 69.8c-3.4.2-6.8.2-10.1 0 0-.7 0-1.4 0-2.1 3.4.2 6.8.2 10.1 0z" fill="#e2b550"/><path d="m33 50 2.1-3.6 2.2 3.6z" fill="#fff"/><path d="m35.1 46.4.4.7" fill="none"/><path d="m27.8 41.4v.1l-1.2 1.2 8.2 6 .3-.4.3-.3-6.4-7.8z" fill="#d1d1d1"/><path d="m29 40.2-.5.5 6.7 7.5.2-.2z" fill="#efefef"/><path d="m42.3 55.1v.1l-1.2 1.2-6.4-7.8.3-.3.3-.3 8.2 5.9z" fill="#d1d1d1"/><path d="m43.5 53.9-.4.5-7.9-6.3.1-.2z" fill="#efefef"/><path d="m42.1 41.2-1.2-1.2-6.2 8 .3.3.3.3 8-6.1z" fill="#d1d1d1"/><path d="m43.3 42.5-.4-.5-7.7 6.5.1.2z" fill="#efefef"/><path d="m28 55.4-1.2-1.2 8-6.2.3.3.3.3-6.2 8z" fill="#d1d1d1"/><path d="m29.2 56.6-.4-.5 6.4-7.7.2.2z" fill="#efefef"/><circle cx="35.1" cy="48.3" fill="#b5b5b5" r=".8"/><circle cx="35.1" cy="48.3" fill="#edefed" r=".6"/><path d="m43.3 66.1v10.7l12.9.3v-11.1z" fill="#f87842"/><path d="m56.1 77.1 16.4-1.6.1-9.9-16.6-.1z" fill="#b85328"/><path d="m51.3 68.2h2.5v3.5h-2.5z" fill="#ece6e8" transform="matrix(1 .00305908 -.00305908 1 .2141 -.1605)"/><path d="m44.5 68h2.2v3.5h-2.2z" fill="#ece6e8" transform="matrix(1 .00303386 -.00303386 1 .212 -.1379)"/><path d="m50 77-2.7-.1v-1.7-.3-3.8h2.7v.6.3z" fill="#3b575e"/><path d="m47.6 71.1h2.4-2.7v5.8h.3z" fill="#23343a"/><path d="m48.7 71.1h-.1v5.8h.1z" fill="#ededed"/><path d="m68.9 68.8v2.5h-.1l-7.6.8h-.1v-.2l-.1-2.7z" fill="#23343a"/><path d="m68.8 71.3-7.7.7v-.1l7.5-.7c.1.1.2.1.2.1z" fill="#162326"/><path d="m68.6 68.8v2.6h.3v-2.6z" fill="#162326"/><path d="m44.6 68.3h1.9v3h-1.9z" fill="#23343a" transform="matrix(1 .00305696 -.00305696 1 .2136 -.1389)"/><path d="m51.6 68.3h1.9v3h-1.9z" fill="#23343a" transform="matrix(1 .00305712 -.00305712 1 .2137 -.1604)"/><path d="m47.3 76.2 2.7-3.2v.6l-2.7 3.2z" fill="#9b9b9b" opacity=".22"/><path d="m50 72-2.7 3.2v-.3-.1l2.6-3.2z" fill="#9b9b9b" opacity=".22"/><path d="m47.3 74.3 2.7-3.2v.6l-2.7 3.3s0-.6 0-.7z" fill="url(#e)" opacity=".22"/><path d="m47.3 74.3 2.7-3.2v.6l-2.7 3.3s0-.6 0-.7z" fill="#9b9b9b" opacity=".22"/><ellipse cx="48.9" cy="74.1" fill="#383838" rx=".1" ry=".3"/><path d="m49 74.1c0 .2-.1.3-.1.3s-.1-.1-.1-.3 0-.3.1-.3c0 .1.1.2.1.3z" fill="#565654"/><ellipse cx="48.4" cy="74.1" fill="#383838" rx=".1" ry=".2"/><path d="m48.5 74.1c0 .1 0 .2-.1.2 0 0-.1-.1-.1-.2s0-.2.1-.2.1.1.1.2z" fill="#565654"/><path d="m43.3 66.4h12.7v.3h-12.7z" fill="#c4c2c3" opacity=".53" transform="matrix(1 .00306696 -.00306696 1 .2043 -.152)"/><path d="m56 66.4 16.6-.3v.3l-16.6.3z" fill="#c4c2c3" opacity=".53"/><path d="m49.5 58.1-7.2 8.2h14z" fill="#d3d3d3"/><path d="m73.3 66h-1.1l-.9.1h-1.2-.8-1.3l-.8.1h-1.3-.8l-1.4.1h-.8-1.4-.8-1.2l-.1.1h-.1-.5-.1-.1-.6-.3-.5-.3-.4l-6.9-8.6h.6.9.8.1.9.1 1.1.9 1.3.9 1.4.9 1.2l1 .1h1.1 1 1.1 1 .5z" fill="#d3d3d3"/><path d="m57 66.5-15.3-.1 7.9-8.6zm-14.2-.6 13 .1-6.3-7.4z" fill="#efefef"/><path d="m58 66.4h-.4-.4l-6.9-8.5s-.1-.1-.1-.1h.9c.1.1.2.1.2.2z" fill="#efefef"/><path d="m59.5 66.3h-.1-.1-.5-.1l-6.7-8.5h.9.1l6.4 8.4c.1.1.1.1.1.1z" fill="#efefef"/><path d="m61.5 66.3h-.8l-6.6-8.5h1s.1.1.1.1z" fill="#efefef"/><path d="m63.7 66.3h-.8l-6.6-8.5h.9z" fill="#efefef"/><path d="m65.9 66.2h-.8l-6.5-8.4h.9z" fill="#efefef"/><path d="m68 66.1-.8.1-6.5-8.4 1 .1z" fill="#efefef"/><path d="m70.1 66.1h-.8l-6.5-8.2h1z" fill="#efefef"/><path d="m72.2 66-.9.1-6.4-8.2h1z" fill="#efefef"/><path d="m48.8 73.9c.1 0 .1 0 0 0s0 .1 0 0c0 .1-.1.1-.1.2.1-.1.1-.2.1-.2z" fill="#a0a0a0"/><path d="m48.4 73.9s.1 0 0 0c0 .1 0 .1 0 0 0 .1-.1.1-.1.2 0-.1.1-.1.1-.2z" fill="#a0a0a0"/><circle cx="106.5" cy="56.5" fill="#f87842" r=".6"/><path d="m106.9 74.9-.3-18.4c0-.1-.1-.3-.2-.2-.1 0-.1.1-.1.2l-.4 18.4v.1h.8c.1-.1.2-.1.2-.1z" fill="#f9fafa"/><path d="m106.9 74.9-.3-18.5c0-.1 0-.1-.1-.1 0 0-.1 0-.1.1 0 0 .2 17.6.3 18.6.1-.1.2-.1.2-.1z" fill="#c8cccc"/><path d="m106.4 55.9c0-.2-.4-.4-.4-.6 0-1.5.1-1.9.4-4.5 0 .4.1 2.1.1 2.6 0 .9.2 1.7.2 2.5 0 .2-.1.4-.1.6-.2.3-.2-.5-.2-.6z" fill="#afafaf"/><path d="m106.4 56.6c-.1-.2 0-.6 0-.8s-.4-.3-.4-.5c0-1.5.1-3.1.4-4.5 0 .4.1 2.2.1 2.6 0 .9.1 1.8.1 2.6 0 .2 0 .3-.1.5-.1.3-.3.2-.4 0 0-.1.4.1.3.1z" fill="#f9fafa"/><path d="m107 56.7c.2 0 .5-.3.7-.2 1.4.5 1.8.6 4.2 1.7-.4-.2-2-.5-2.5-.7-.8-.2-1.6-.3-2.5-.6-.2-.1-.4-.2-.5-.3-.3-.2.4.1.6.1z" fill="#afafaf"/><path d="m106.2 56.5c.2 0 .6.2.8.2s.4-.3.6-.2c1.4.5 2.9 1 4.3 1.6-.4-.2-2.1-.5-2.6-.6-.8-.2-1.7-.4-2.5-.6-.2-.1-.3-.1-.5-.2-.2-.2-.1-.3.2-.4 0 0-.3.2-.3.2z" fill="#f9fafa"/><path d="m105.7 56.7c-.2 0-.5-.3-.7-.2-1.4.5-1.8.6-4.2 1.7.4-.2 2-.5 2.5-.7.8-.2 1.6-.3 2.5-.6.2-.1.4-.2.5-.3.2-.2-.5.1-.6.1z" fill="#afafaf"/><path d="m106.4 56.5c-.2 0-.6.2-.8.2s-.4-.3-.6-.2c-1.4.5-2.9 1-4.3 1.6.4-.2 2.1-.5 2.6-.6.8-.2 1.7-.4 2.5-.6.2-.1.3-.1.5-.2.2-.2.1-.3-.2-.4 0 0 .3.2.3.2z" fill="#f9fafa"/><circle cx="106.5" cy="56.5" fill="#efefef" r=".4"/><circle cx="116.9" cy="50.7" fill="#f87842" r=".7"/><path d="m117.5 74.4-.4-23.6c0-.2-.1-.3-.2-.3s-.2.1-.2.3l-.5 23.6v.2h1.1c.1-.1.1-.1.2-.2z" fill="#f9fafa"/><path d="m117.5 74.4-.4-23.7c0-.1 0-.1-.1-.1 0 0-.1.1-.1.1s.3 22.6.4 23.8c.1 0 .1 0 .2-.1z" fill="#c8cccc"/><path d="m116.8 50c0-.3-.6-.5-.6-.8.1-1.9.1-2.4.5-5.7-.1.5.1 2.7.1 3.3 0 1.1.2 2.1.2 3.2 0 .2-.1.5-.2.8 0 .3 0-.6 0-.8z" fill="#afafaf"/><path d="m116.9 51c-.1-.2 0-.8-.1-1 0-.3-.5-.4-.5-.7.1-1.9.2-3.9.5-5.8-.1.5.1 2.8.2 3.4 0 1.1.1 2.3.1 3.4 0 .2 0 .4-.1.6-.1.3-.4.2-.5-.1 0-.1.4.2.4.2z" fill="#f9fafa"/><path d="m117.5 51c.3.1.7-.4.9-.3 1.8.6 2.3.8 5.4 2.1-.5-.2-2.6-.7-3.2-.8-1.1-.3-2.1-.4-3.2-.7-.2-.1-.5-.2-.7-.4s.6.1.8.1z" fill="#afafaf"/><path d="m116.6 50.8c.2 0 .8.2 1 .2.3.1.6-.4.8-.3 1.8.6 3.7 1.3 5.5 2.1-.5-.2-2.7-.7-3.3-.8-1.1-.3-2.2-.5-3.3-.8-.2-.1-.4-.1-.6-.3-.3-.2-.1-.4.2-.5.1.1-.3.4-.3.4z" fill="#f9fafa"/><path d="m115.9 51c-.3.1-.7-.4-.9-.3-1.8.6-2.3.8-5.4 2.1.5-.2 2.6-.7 3.2-.8 1.1-.3 2.1-.4 3.2-.7.2-.1.5-.2.7-.4.3-.2-.6.1-.8.1z" fill="#afafaf"/><path d="m116.8 50.8c-.2 0-.8.2-1 .2-.3.1-.6-.4-.8-.3-1.8.6-3.7 1.3-5.5 2.1.5-.2 2.7-.7 3.3-.8 1.1-.3 2.2-.5 3.3-.8.2-.1.4-.1.6-.3.3-.2.1-.4-.2-.5 0 .1.3.4.3.4z" fill="#f9fafa"/><circle cx="116.9" cy="50.7" fill="#efefef" r=".5"/><circle cx="125.9" cy="44.1" fill="#f87842" r="1"/><path d="m126.7 75.3-.5-31.2c0-.2-.1-.4-.3-.4-.1 0-.2.2-.2.4l-.7 31.2v.2h1.4c.1-.1.2-.1.3-.2z" fill="#f9fafa"/><path d="m126.7 75.3-.5-31.3c0-.1 0-.2-.1-.2s-.1.1-.1.2c0 0 .4 29.9.5 31.5 0-.1.1-.1.2-.2z" fill="#c8cccc"/><path d="m126.4 43.1c.1-.3-.3-1-.1-1.3 1.3-2.2 1.7-2.8 4.4-6.3-.4.6-1.7 3.1-2 3.9-.7 1.3-1.2 2.6-1.9 3.9-.2.3-.4.6-.7.8-.4.3.2-.7.3-1z" fill="#afafaf"/><path d="m125.9 44.3c0-.3.5-1 .6-1.2.1-.3-.3-.8-.1-1.1 1.3-2.2 2.7-4.4 4.3-6.4-.4.6-1.7 3.3-2 4-.7 1.3-1.3 2.7-2.1 3.9-.2.3-.3.5-.5.7-.4.3-.6 0-.5-.4 0-.1.3.5.3.5z" fill="#f9fafa"/><path d="m126.6 44.8c.3.2 1 0 1.2.2 1.7 1.9 2.2 2.4 4.8 6-.4-.5-2.5-2.5-3.1-3.1-1-1-2.1-1.9-3.2-2.9-.2-.2-.4-.6-.5-.9-.2-.4.6.5.8.7z" fill="#afafaf"/><path d="m125.7 44c.3.1.8.7 1 .9.3.2.9-.1 1.1.2 1.7 1.9 3.4 3.9 4.9 6-.4-.5-2.7-2.5-3.2-3.1-1-1-2.2-2-3.2-3.1-.2-.2-.4-.4-.5-.7-.2-.4.2-.5.5-.4 0 0-.6.2-.6.2z" fill="#f9fafa"/><path d="m124.7 43.7c-.3-.1-.5-.9-.8-.9-2.5-.5-3.2-.6-7.6-1.1.7.1 3.4.9 4.2 1.1 1.4.4 2.7.9 4.1 1.2.3.1.7.1 1 0 .6 0-.6-.2-.9-.3z" fill="#afafaf"/><path d="m125.9 44.1c-.2-.2-1-.3-1.3-.4s-.4-.8-.7-.9c-2.5-.5-5.1-1-7.6-1.2.7.1 3.5 1 4.3 1.2 1.4.4 2.9.8 4.3 1.2.3.1.5.1.8.1.5-.1.4-.4.1-.7-.1.1.1.7.1.7z" fill="#f9fafa"/><circle cx="125.9" cy="44.1" fill="#efefef" r=".7"/><path d="m125 74h.5v2.8h-.5z" fill="#23343a"/><path d="m121.6 74.7v.2h7.4v-.2z" fill="#23343a"/><path d="m129.1 74.7h-7.5l1.4-4.4h4.7z" fill="#f2f0dd"/><path d="m124.8 70.5-.3 4h-.5l.4-4z" fill="#2683a8"/><path d="m126.3 70.5.4 4.1h-.4l-.4-4.1z" fill="#2683a8"/><path d="m124.3 71.4h-1.3l.2-.8h1.2z" fill="#23343a"/><path d="m126 71.4h-1.3v-.8h1.3z" fill="#23343a"/><path d="m127.7 71.4h-1.3l-.1-.8h1.2z" fill="#23343a"/><path d="m124.2 72.6h-1.5l.2-1h1.4z" fill="#23343a"/><path d="m126.1 72.6h-1.5l.1-1h1.3z" fill="#23343a"/><path d="m128 72.6h-1.5l-.1-1h1.3z" fill="#23343a"/><path d="m124 74.2h-1.7l.3-1.4h1.6z" fill="#23343a"/><path d="m126.2 74.2h-1.7l.1-1.4h1.5z" fill="#23343a"/><path d="m128.4 74.2h-1.7l-.2-1.4h1.6z" fill="#23343a"/><path d="m127.8 70.6h-4.9l.1-.3h4.7z" fill="#b6d7ef"/><path d="m128.1 71.6h-5.5l.1-.2h5.3z" fill="#43aadd"/><path d="m128.4 72.8h-6.2l.1-.2h6.1z" fill="#43aadd"/><path d="m122.1 74.7h-.5l1.4-4.4h.3z" fill="#b6d7ef"/><path d="m129.1 74.7h-.5l-1.2-4.4h.3z" fill="#b6d7ef"/><path d="m129.1 74.7h-7.5l.2-.5h7.1z" fill="#b6d7ef"/><path d="m124.9 76.8h.8v.2h-.8z" fill="#121b1e"/><path d="m116.3 73.7h.4v2.3h-.4z" fill="#23343a"/><path d="m113.4 74.3v.2h6.3v-.2z" fill="#23343a"/><path d="m119.7 74.3h-6.3l1.1-3.7h4.1z" fill="#f2f0dd"/><path d="m116 70.7-.2 3.4h-.4l.4-3.4z" fill="#2683a8"/><path d="m117.3 70.7.4 3.5h-.4l-.2-3.5z" fill="#2683a8"/><path d="m115.7 71.5h-1.2l.2-.7h1.1z" fill="#23343a"/><path d="m117.1 71.5h-1.1v-.7h1.1z" fill="#23343a"/><path d="m118.5 71.5h-1.1l-.1-.7h1.1z" fill="#23343a"/><path d="m115.6 72.5h-1.3l.2-.9h1.2z" fill="#23343a"/><path d="m117.2 72.5h-1.3l.1-.9h1.1z" fill="#23343a"/><path d="m118.8 72.5h-1.3l-.1-.9h1.2z" fill="#23343a"/><path d="m115.4 73.8h-1.5l.3-1.1h1.3z" fill="#23343a"/><path d="m117.3 73.8h-1.5l.1-1.1h1.3z" fill="#23343a"/><path d="m119.2 73.8h-1.5l-.2-1.1h1.4z" fill="#23343a"/><path d="m118.6 70.8h-4.1v-.2h4.1z" fill="#b6d7ef"/><path d="m118.9 71.6h-4.7l.1-.1h4.5z" fill="#43aadd"/><path d="m119.2 72.7h-5.3l.1-.2h5.1z" fill="#43aadd"/><path d="m113.8 74.3h-.4l1.1-3.7h.3z" fill="#b6d7ef"/><path d="m119.7 74.3h-.4l-1-3.7h.3z" fill="#b6d7ef"/><path d="m119.7 74.3h-6.3l.1-.5h6.1z" fill="#b6d7ef"/><path d="m116.2 76h.7v.2h-.7z" fill="#121b1e"/><path d="m60 74.2v.1.2l-.5 2.9c0 .1-.1.1-.2.1h-1.1c-.1 0-.1-.1-.2-.1l-.5-2.9v-.2-.1z" fill="#c6c6c6"/><path d="m59.9 74.1h-2.3c-.1 0-.1 0-.1-.1s0-.1.1-.1h2.3c.1 0 .1 0 .1.1s0 .1-.1.1z" fill="#f4f4f4"/><path d="m60.1 74.3h-2.6c-.1 0-.1 0-.1-.1s0-.1.1-.1h2.6c.1 0 .1 0 .1.1s-.1.1-.1.1z" fill="#dbdbdb"/><path d="m60 74.3v.2h-2.5v-.2z" fill="#a5a5a5"/><path d="m58.2 73.7c-.1 0-.1 0 0 0v.2-.2h1.2v.1-.1z" fill="#f4f4f4"/><path d="m58.7 75.9c0-.1 0-.1 0 0h-.3l.1-.2s0 0 0-.1 0-.1 0-.1l-.2.1-.2.3.1.2h.4zm-.3 0h.3v.2h-.4zm.1-.2-.3.3-.1-.2.2-.3.2-.1z" fill="#fff"/><path d="m58.4 75.3c0 .1 0 .1 0 0l.2.1.2-.3.1.2h.1.1l.1-.2-.3-.1h-.2zm.2-.3.1.2-.2.3-.2-.1zm.2.4c.1 0 .1 0 0 0l-.1-.4h.2l.2.3-.1.2c0-.1-.1-.1-.2-.1z" fill="#fff"/><path d="m59.4 75.9-.2-.4-.2.1.1.3h-.2s0 0-.1 0c0 0-.1.1-.1.1l.2.2h.3zm-.2-.4.2.4h-.2l-.2-.3zm-.3.3c0 .1 0 .1 0 0h.4l-.1.2h-.3l-.1-.1s.1-.1.1-.1z" fill="#fff"/><path d="m58.3 76.1h.4v-.2h-.3z" fill="#429100"/><path d="m58.7 75.2-.1-.2-.2.3.2.1z" fill="#429100"/><path d="m58.9 75.4s.1.1.1.1l.1-.2-.2-.3h-.2z" fill="#a1de08"/><path d="m58.5 75.7s0-.1 0-.2l-.2.1-.2.3.1.2z" fill="#a1de08"/><path d="m58.9 75.9s-.1 0-.1.1l.1.1h.3l.1-.2z" fill="#429100"/><path d="m59.4 75.8-.2-.3-.2.1.2.2z" fill="#a1de08"/><path d="m106.1 74.3h.3v1.7h-.3z" fill="#23343a"/><path d="m103.9 74.8v.1h4.7v-.1z" fill="#23343a"/><path d="m108.6 74.8h-4.6l.8-2.8h3z" fill="#f2f0dd"/><path d="m105.9 72.1-.2 2.5h-.3l.3-2.5z" fill="#2683a8"/><path d="m106.9 72.1.3 2.6h-.4l-.1-2.6z" fill="#2683a8"/><path d="m105.6 72.7h-.8l.1-.5h.8z" fill="#23343a"/><path d="m106.7 72.7h-.8v-.5h.8z" fill="#23343a"/><path d="m107.8 72.7h-.9v-.5h.7z" fill="#23343a"/><path d="m105.6 73.4h-1l.2-.6h.8z" fill="#23343a"/><path d="m106.8 73.4h-1l.1-.6h.8z" fill="#23343a"/><path d="m108 73.4h-1l-.1-.6h.9z" fill="#23343a"/><path d="m105.4 74.4h-1.1l.3-.8h.9z" fill="#23343a"/><path d="m106.8 74.4h-1.1l.1-.8h1z" fill="#23343a"/><path d="m108.2 74.4h-1.1l-.1-.8h1z" fill="#23343a"/><path d="m107.8 72.2h-3.1l.1-.2h3z" fill="#b6d7ef"/><path d="m108 72.8h-3.4v-.1h3.4z" fill="#43aadd"/><path d="m108.2 73.6h-3.9l.1-.2h3.8z" fill="#43aadd"/><path d="m104.3 74.8h-.4l.9-2.8h.2z" fill="#b6d7ef"/><path d="m108.6 74.8h-.3l-.7-2.8h.2z" fill="#b6d7ef"/><path d="m108.6 74.8h-4.7l.1-.4h4.5z" fill="#b6d7ef"/><path d="m106 76.1h.5v.1h-.5z" fill="#121b1e"/><path d="m103.4 64.8-.8.9-2.5-2.2-1.5-1.9-.6-2.4-1.4-.4-2.5-1.2-1-2.4-1.5-4.5 2.8 4.2 2.9 2.5 2 .4 1.4 2.5.5 2.2z" fill="#6e7508"/><path d="m55.1 92.1 28.8-.6-4.3 15.7-16.7-1.3z" fill="#dbb48d"/><path d="m62.9 105.9 16.8 1.3 2.8 14.7-19.3 2z" fill="#966031"/><path d="m92.1 72.3h.3v2.7h-.3z" fill="#ddd"/><path d="m86.3 69.5h.3v4.9h-.3z" fill="#ddd"/><path d="m80.6 72.3h.3v2.7h-.3z" fill="#ddd"/><path d="m81 73.3v-3.4h11v3.4h.4v-3.9h-11.8v3.9z" fill="#ededed"/><path d="m80.9 70.4h11.4v.3h-11.4z" fill="#ededed"/><path d="m92 70.8h-11z" fill="#528f99"/><path d="m80.9 71h11.4v.3h-11.4z" fill="#ededed"/><path d="m92 71.3h-11z" fill="#528f99"/><path d="m80.9 71.5h11.4v.3h-11.4z" fill="#ededed"/><path d="m92 71.9-11-.1h11z" fill="#528f99"/><path d="m80.9 72.1h11.4v.3h-11.4z" fill="#ededed"/><path d="m92 72.4h-11z" fill="#528f99"/><path d="m80.9 72.6h11.4v.3h-11.4z" fill="#ededed"/><path d="m92 72.9h-11z" fill="#528f99"/><path d="m80.9 73.1h11.4v.1h-11.4z" fill="#ededed"/><path d="m81.1 69.9h10.9v.1h-10.9z" fill="#528f99"/><path d="m80.6 73.3h11.9v1.2h-11.9z" fill="#ddd"/><path d="m80.3 72.1h.3v3.7h-.3z" fill="#ddd"/><path d="m92.4 72.1h.3v3.7h-.3z" fill="#ddd"/></svg>
